<?xml version="1.0"?>
<mxfile host="www.draw.io" modified="2020-07-16T13:27:13.577Z" agent="5.0 (X11)" etag="XxQiYxxman5h5eacmWEX" version="13.4.4" pages="2">
  <diagram name="SamplinPoints" id="b33cb84f-bf7a-9ccf-f142-242d16432e5d">
    <mxGraphModel dx="2" dy="1" grid="1" gridSize="10" guides="1" tooltips="1" connect="1" arrows="1" fold="1" page="1" pageScale="1.5" pageWidth="1169" pageHeight="826" background="#ffffff" math="1" shadow="0">
      <root>
        <mxCell id="0" style=";html=1;"/>
        <mxCell id="1" style=";html=1;" parent="0"/>
        <mxCell id="-EK-A21rSg6rs5fbGKdR-84" value="" style="endArrow=none;html=1;strokeWidth=3;fillColor=#76608a;strokeColor=#B3B3B3;" parent="1" source="6" target="-EK-A21rSg6rs5fbGKdR-85" edge="1">
          <mxGeometry width="50" height="50" relative="1" as="geometry">
            <mxPoint x="344.96138938356853" y="118.68243142124459" as="sourcePoint"/>
            <mxPoint x="380" y="287.25" as="targetPoint"/>
          </mxGeometry>
        </mxCell>
        <mxCell id="58" value="&lt;br&gt;&lt;br&gt;E" style="ellipse;whiteSpace=wrap;html=1;aspect=fixed;fillColor=none;" parent="1" vertex="1">
          <mxGeometry x="550" y="140" width="120" height="120" as="geometry"/>
        </mxCell>
        <mxCell id="57" value="&lt;br&gt;&lt;br&gt;D" style="ellipse;whiteSpace=wrap;html=1;aspect=fixed;fillColor=none;" parent="1" vertex="1">
          <mxGeometry x="450" y="110" width="120" height="120" as="geometry"/>
        </mxCell>
        <mxCell id="63" value="&lt;br&gt;&lt;br&gt;J" style="ellipse;whiteSpace=wrap;html=1;aspect=fixed;fillColor=none;" parent="1" vertex="1">
          <mxGeometry x="933" y="260" width="120" height="120" as="geometry"/>
        </mxCell>
        <mxCell id="59" value="&lt;br&gt;&lt;br&gt;F" style="ellipse;whiteSpace=wrap;html=1;aspect=fixed;fillColor=none;" parent="1" vertex="1">
          <mxGeometry x="620" y="200" width="120" height="120" as="geometry"/>
        </mxCell>
        <mxCell id="60" value="G&lt;br&gt;&lt;br&gt;" style="ellipse;whiteSpace=wrap;html=1;aspect=fixed;fillColor=none;" parent="1" vertex="1">
          <mxGeometry x="660" y="220" width="120" height="120" as="geometry"/>
        </mxCell>
        <mxCell id="61" value="&lt;br&gt;&lt;br&gt;H" style="ellipse;whiteSpace=wrap;html=1;aspect=fixed;fillColor=none;" parent="1" vertex="1">
          <mxGeometry x="700" y="190" width="120" height="120" as="geometry"/>
        </mxCell>
        <mxCell id="62" value="&lt;br&gt;&lt;br&gt;I" style="ellipse;whiteSpace=wrap;html=1;aspect=fixed;fillColor=none;" parent="1" vertex="1">
          <mxGeometry x="833" y="190" width="120" height="120" as="geometry"/>
        </mxCell>
        <mxCell id="QKl0FdShNXnXOFpWQBXe-12" value="" style="endArrow=none;html=1;strokeWidth=3;fillColor=#76608a;strokeColor=#B3B3B3;" parent="1" source="10" target="12" edge="1">
          <mxGeometry width="50" height="50" relative="1" as="geometry">
            <mxPoint x="693" y="470" as="sourcePoint"/>
            <mxPoint x="833" y="290" as="targetPoint"/>
          </mxGeometry>
        </mxCell>
        <mxCell id="QKl0FdShNXnXOFpWQBXe-14" value="" style="endArrow=none;html=1;strokeWidth=3;fillColor=#76608a;strokeColor=#B3B3B3;" parent="1" source="10" target="11" edge="1">
          <mxGeometry width="50" height="50" relative="1" as="geometry">
            <mxPoint x="833" y="290" as="sourcePoint"/>
            <mxPoint x="1003" y="350" as="targetPoint"/>
          </mxGeometry>
        </mxCell>
        <mxCell id="QKl0FdShNXnXOFpWQBXe-15" value="" style="endArrow=none;html=1;strokeWidth=3;fillColor=#76608a;strokeColor=#B3B3B3;" parent="1" source="9" target="10" edge="1">
          <mxGeometry width="50" height="50" relative="1" as="geometry">
            <mxPoint x="563" y="390" as="sourcePoint"/>
            <mxPoint x="833" y="290" as="targetPoint"/>
          </mxGeometry>
        </mxCell>
        <mxCell id="QKl0FdShNXnXOFpWQBXe-16" value="" style="endArrow=none;html=1;strokeWidth=3;fillColor=#76608a;strokeColor=#B3B3B3;" parent="1" source="9" target="8" edge="1">
          <mxGeometry width="50" height="50" relative="1" as="geometry">
            <mxPoint x="430" y="550" as="sourcePoint"/>
            <mxPoint x="820" y="200" as="targetPoint"/>
          </mxGeometry>
        </mxCell>
        <mxCell id="QKl0FdShNXnXOFpWQBXe-18" value="" style="endArrow=none;html=1;strokeWidth=3;fillColor=#76608a;strokeColor=#B3B3B3;" parent="1" source="8" target="6" edge="1">
          <mxGeometry width="50" height="50" relative="1" as="geometry">
            <mxPoint x="630" y="100" as="sourcePoint"/>
            <mxPoint x="480" y="240" as="targetPoint"/>
          </mxGeometry>
        </mxCell>
        <mxCell id="QKl0FdShNXnXOFpWQBXe-19" value="" style="endArrow=none;html=1;strokeWidth=3;fillColor=#76608a;strokeColor=#B3B3B3;" parent="1" source="6" target="13" edge="1">
          <mxGeometry width="50" height="50" relative="1" as="geometry">
            <mxPoint x="360" y="190" as="sourcePoint"/>
            <mxPoint x="160" y="160" as="targetPoint"/>
          </mxGeometry>
        </mxCell>
        <mxCell id="QKl0FdShNXnXOFpWQBXe-44" style="edgeStyle=orthogonalEdgeStyle;rounded=0;orthogonalLoop=1;jettySize=auto;html=1;exitX=0.5;exitY=1;exitDx=0;exitDy=0;strokeColor=#B3B3B3;strokeWidth=3;fontColor=#000000;" parent="1" edge="1">
          <mxGeometry relative="1" as="geometry">
            <mxPoint x="310.4200000000001" y="180" as="sourcePoint"/>
            <mxPoint x="310.4200000000001" y="180" as="targetPoint"/>
          </mxGeometry>
        </mxCell>
        <mxCell id="6" value="" style="ellipse;whiteSpace=wrap;html=1;aspect=fixed;fillColor=#f5f5f5;strokeColor=#666666;rotation=0;fontColor=#333333;labelPosition=center;verticalLabelPosition=middle;align=center;verticalAlign=bottom;" parent="1" vertex="1">
          <mxGeometry x="330" y="100" width="20" height="20" as="geometry"/>
        </mxCell>
        <mxCell id="8" value="" style="ellipse;whiteSpace=wrap;html=1;aspect=fixed;fillColor=#f5f5f5;strokeColor=#666666;rotation=0;fontColor=#333333;labelPosition=center;verticalLabelPosition=middle;align=center;verticalAlign=bottom;" parent="1" vertex="1">
          <mxGeometry x="600" y="80" width="20" height="20" as="geometry"/>
        </mxCell>
        <mxCell id="9" value="" style="ellipse;whiteSpace=wrap;html=1;aspect=fixed;fillColor=#f5f5f5;strokeColor=#666666;rotation=0;fontColor=#333333;labelPosition=center;verticalLabelPosition=middle;align=center;verticalAlign=bottom;" parent="1" vertex="1">
          <mxGeometry x="810" y="80" width="20" height="20" as="geometry"/>
        </mxCell>
        <mxCell id="10" value="" style="ellipse;whiteSpace=wrap;html=1;aspect=fixed;fillColor=#f5f5f5;strokeColor=#666666;rotation=0;fontColor=#333333;labelPosition=center;verticalLabelPosition=middle;align=center;verticalAlign=bottom;" parent="1" vertex="1">
          <mxGeometry x="883" y="150" width="20" height="20" as="geometry"/>
        </mxCell>
        <mxCell id="11" value="" style="ellipse;whiteSpace=wrap;html=1;aspect=fixed;fillColor=#f5f5f5;strokeColor=#666666;rotation=0;fontColor=#333333;labelPosition=center;verticalLabelPosition=middle;align=center;verticalAlign=bottom;" parent="1" vertex="1">
          <mxGeometry x="1023" y="330" width="20" height="20" as="geometry"/>
        </mxCell>
        <mxCell id="12" value="" style="ellipse;whiteSpace=wrap;html=1;aspect=fixed;fillColor=#f5f5f5;strokeColor=#666666;rotation=0;fontColor=#333333;labelPosition=center;verticalLabelPosition=middle;align=center;verticalAlign=bottom;" parent="1" vertex="1">
          <mxGeometry x="1023" y="95" width="20" height="20" as="geometry"/>
        </mxCell>
        <mxCell id="13" value="" style="ellipse;whiteSpace=wrap;html=1;aspect=fixed;fillColor=#f5f5f5;strokeColor=#666666;rotation=0;fontColor=#333333;labelPosition=center;verticalLabelPosition=middle;align=center;verticalAlign=bottom;" parent="1" vertex="1">
          <mxGeometry x="120" y="160" width="20" height="20" as="geometry"/>
        </mxCell>
        <mxCell id="19" value="" style="shape=flexArrow;endArrow=classic;html=1;fillColor=#d5e8d4;strokeColor=#82b366;width=5.032258064516129;endSize=5.741935483870968;endWidth=9.094693028095733;" parent="1" edge="1">
          <mxGeometry width="50" height="50" relative="1" as="geometry">
            <mxPoint x="150" y="190" as="sourcePoint"/>
            <mxPoint x="190" y="170" as="targetPoint"/>
          </mxGeometry>
        </mxCell>
        <mxCell id="20" value="" style="shape=flexArrow;endArrow=classic;html=1;fillColor=#d5e8d4;strokeColor=#82b366;width=5.032258064516129;endSize=5.741935483870968;endWidth=9.094693028095733;" parent="1" edge="1">
          <mxGeometry width="50" height="50" relative="1" as="geometry">
            <mxPoint x="270" y="150" as="sourcePoint"/>
            <mxPoint x="320" y="140" as="targetPoint"/>
          </mxGeometry>
        </mxCell>
        <mxCell id="21" value="" style="shape=flexArrow;endArrow=classic;html=1;fillColor=#d5e8d4;strokeColor=#82b366;width=5.032258064516129;endSize=5.741935483870968;endWidth=9.094693028095733;" parent="1" edge="1">
          <mxGeometry width="50" height="50" relative="1" as="geometry">
            <mxPoint x="377.5" y="130" as="sourcePoint"/>
            <mxPoint x="442.5" y="120" as="targetPoint"/>
          </mxGeometry>
        </mxCell>
        <mxCell id="23" value="" style="shape=flexArrow;endArrow=classic;html=1;fillColor=#f8cecc;strokeColor=#b85450;width=5.032258064516129;endSize=5.741935483870968;endWidth=9.094693028095733;" parent="1" edge="1">
          <mxGeometry width="50" height="50" relative="1" as="geometry">
            <mxPoint x="490" y="175" as="sourcePoint"/>
            <mxPoint x="540" y="165" as="targetPoint"/>
          </mxGeometry>
        </mxCell>
        <mxCell id="24" value="" style="shape=flexArrow;endArrow=classic;html=1;fillColor=#f8cecc;strokeColor=#b85450;width=5.032258064516129;endSize=5.741935483870968;endWidth=9.094693028095733;" parent="1" edge="1">
          <mxGeometry width="50" height="50" relative="1" as="geometry">
            <mxPoint x="585" y="210" as="sourcePoint"/>
            <mxPoint x="635" y="200" as="targetPoint"/>
          </mxGeometry>
        </mxCell>
        <mxCell id="25" value="" style="shape=flexArrow;endArrow=classic;html=1;fillColor=#f8cecc;strokeColor=#b85450;width=5.032258064516129;endSize=5.741935483870968;endWidth=9.094693028095733;" parent="1" edge="1">
          <mxGeometry width="50" height="50" relative="1" as="geometry">
            <mxPoint x="695" y="280" as="sourcePoint"/>
            <mxPoint x="745" y="290" as="targetPoint"/>
          </mxGeometry>
        </mxCell>
        <mxCell id="26" value="" style="shape=flexArrow;endArrow=classic;html=1;fillColor=#f8cecc;strokeColor=#b85450;width=5.032258064516129;endSize=5.741935483870968;endWidth=9.094693028095733;" parent="1" edge="1">
          <mxGeometry width="50" height="50" relative="1" as="geometry">
            <mxPoint x="740" y="230" as="sourcePoint"/>
            <mxPoint x="770" y="260" as="targetPoint"/>
          </mxGeometry>
        </mxCell>
        <mxCell id="27" value="" style="shape=flexArrow;endArrow=classic;html=1;fillColor=#d5e8d4;strokeColor=#82b366;width=5.032258064516129;endSize=5.741935483870968;endWidth=9.094693028095733;" parent="1" edge="1">
          <mxGeometry width="50" height="50" relative="1" as="geometry">
            <mxPoint x="883" y="235" as="sourcePoint"/>
            <mxPoint x="913" y="265" as="targetPoint"/>
          </mxGeometry>
        </mxCell>
        <mxCell id="30" value="" style="shape=flexArrow;endArrow=classic;html=1;fillColor=#d5e8d4;strokeColor=#82b366;width=5.032258064516129;endSize=5.741935483870968;endWidth=9.094693028095733;" parent="1" edge="1">
          <mxGeometry width="50" height="50" relative="1" as="geometry">
            <mxPoint x="983" y="305" as="sourcePoint"/>
            <mxPoint x="1003" y="335" as="targetPoint"/>
          </mxGeometry>
        </mxCell>
        <mxCell id="31" value="" style="shape=flexArrow;endArrow=classic;html=1;fillColor=#f8cecc;strokeColor=#b85450;width=5.032258064516129;endSize=5.741935483870968;endWidth=9.094693028095733;" parent="1" edge="1">
          <mxGeometry width="50" height="50" relative="1" as="geometry">
            <mxPoint x="660" y="259.71" as="sourcePoint"/>
            <mxPoint x="710" y="259.71" as="targetPoint"/>
          </mxGeometry>
        </mxCell>
        <mxCell id="32" value="GPS error" style="text;html=1;strokeColor=none;fillColor=none;align=center;verticalAlign=middle;whiteSpace=wrap;rounded=0;" parent="1" vertex="1">
          <mxGeometry x="590" y="20" width="70" height="20" as="geometry"/>
        </mxCell>
        <mxCell id="33" value="GPS relocated position" style="text;whiteSpace=wrap;html=1;" parent="1" vertex="1">
          <mxGeometry x="893" y="10" width="150" height="30" as="geometry"/>
        </mxCell>
        <mxCell id="36" value="" style="shape=crossbar;whiteSpace=wrap;html=1;rounded=1;" parent="1" vertex="1">
          <mxGeometry x="470" y="40" width="330" height="20" as="geometry"/>
        </mxCell>
        <mxCell id="43" value="" style="shape=crossbar;whiteSpace=wrap;html=1;rounded=1;" parent="1" vertex="1">
          <mxGeometry x="830" y="40" width="213" height="20" as="geometry"/>
        </mxCell>
        <mxCell id="44" value="GPS data with normal noise" style="text;html=1;strokeColor=none;fillColor=none;align=center;verticalAlign=middle;whiteSpace=wrap;rounded=0;" parent="1" vertex="1">
          <mxGeometry x="210" y="20" width="160" height="20" as="geometry"/>
        </mxCell>
        <mxCell id="45" value="" style="shape=crossbar;whiteSpace=wrap;html=1;rounded=1;" parent="1" vertex="1">
          <mxGeometry x="140" y="40" width="310" height="20" as="geometry"/>
        </mxCell>
        <mxCell id="46" value="&lt;div&gt;&lt;br&gt;&lt;/div&gt;&lt;div&gt;&lt;br&gt;&lt;/div&gt;&lt;div&gt;A&lt;br&gt;&lt;/div&gt;" style="ellipse;whiteSpace=wrap;html=1;aspect=fixed;fillColor=none;" parent="1" vertex="1">
          <mxGeometry x="110" y="120" width="120" height="120" as="geometry"/>
        </mxCell>
        <mxCell id="55" value="&lt;br&gt;&lt;br&gt;B" style="ellipse;whiteSpace=wrap;html=1;aspect=fixed;fillColor=none;" parent="1" vertex="1">
          <mxGeometry x="235" y="90" width="120" height="120" as="geometry"/>
        </mxCell>
        <mxCell id="56" value="&lt;br&gt;&lt;br&gt;C" style="ellipse;whiteSpace=wrap;html=1;aspect=fixed;fillColor=none;" parent="1" vertex="1">
          <mxGeometry x="350" y="65" width="120" height="120" as="geometry"/>
        </mxCell>
        <mxCell id="65" value="" style="ellipse;whiteSpace=wrap;html=1;aspect=fixed;fillColor=#d5e8d4;strokeColor=#82b366;rotation=5;" parent="1" vertex="1">
          <mxGeometry x="160" y="154.79" width="10.42" height="10.42" as="geometry"/>
        </mxCell>
        <mxCell id="66" value="" style="ellipse;whiteSpace=wrap;html=1;aspect=fixed;fillColor=#d5e8d4;strokeColor=#82b366;rotation=5;" parent="1" vertex="1">
          <mxGeometry x="280.47" y="120" width="10" height="10" as="geometry"/>
        </mxCell>
        <mxCell id="67" value="" style="ellipse;whiteSpace=wrap;html=1;aspect=fixed;fillColor=#d5e8d4;strokeColor=#82b366;rotation=5;" parent="1" vertex="1">
          <mxGeometry x="340" y="130" width="10" height="10" as="geometry"/>
        </mxCell>
        <mxCell id="69" value="" style="ellipse;whiteSpace=wrap;html=1;aspect=fixed;fillColor=#d5e8d4;strokeColor=#82b366;rotation=5;" parent="1" vertex="1">
          <mxGeometry x="400" y="100" width="10" height="10" as="geometry"/>
        </mxCell>
        <mxCell id="70" value="" style="ellipse;whiteSpace=wrap;html=1;aspect=fixed;fillColor=#d5e8d4;strokeColor=#82b366;rotation=5;" parent="1" vertex="1">
          <mxGeometry x="933" y="210" width="10" height="10" as="geometry"/>
        </mxCell>
        <mxCell id="71" value="" style="ellipse;whiteSpace=wrap;html=1;aspect=fixed;fillColor=#d5e8d4;strokeColor=#82b366;rotation=5;" parent="1" vertex="1">
          <mxGeometry x="1003" y="300" width="10" height="10" as="geometry"/>
        </mxCell>
        <mxCell id="-EK-A21rSg6rs5fbGKdR-85" value="" style="ellipse;whiteSpace=wrap;html=1;aspect=fixed;fillColor=#f5f5f5;strokeColor=#666666;rotation=0;fontColor=#333333;labelPosition=center;verticalLabelPosition=middle;align=center;verticalAlign=bottom;" parent="1" vertex="1">
          <mxGeometry x="360" y="230" width="20" height="20" as="geometry"/>
        </mxCell>
        <mxCell id="77" value="" style="shape=table;html=1;whiteSpace=wrap;startSize=0;container=1;collapsible=0;childLayout=tableLayout;fillColor=none;" parent="1" vertex="1">
          <mxGeometry x="200" y="280" width="240" height="80" as="geometry"/>
        </mxCell>
        <mxCell id="78" value="" style="shape=partialRectangle;html=1;whiteSpace=wrap;collapsible=0;dropTarget=0;pointerEvents=0;fillColor=none;top=0;left=0;bottom=0;right=0;points=[[0,0.5],[1,0.5]];portConstraint=eastwest;" parent="77" vertex="1">
          <mxGeometry width="240" height="40" as="geometry"/>
        </mxCell>
        <mxCell id="79" value="&lt;div style=&quot;font-size: 14px;&quot;&gt;Track&lt;/div&gt;" style="shape=partialRectangle;html=1;whiteSpace=wrap;connectable=0;fillColor=none;top=0;left=0;bottom=0;right=0;overflow=hidden;fontSize=14;" parent="78" vertex="1">
          <mxGeometry width="60" height="40" as="geometry"/>
        </mxCell>
        <mxCell id="80" value="[A,B,C,D,E,F,G,H,I,J]" style="shape=partialRectangle;html=1;whiteSpace=wrap;connectable=0;fillColor=none;top=0;left=0;bottom=0;right=0;overflow=hidden;fontSize=16;" parent="78" vertex="1">
          <mxGeometry x="60" width="180" height="40" as="geometry"/>
        </mxCell>
        <mxCell id="82" value="" style="shape=partialRectangle;html=1;whiteSpace=wrap;collapsible=0;dropTarget=0;pointerEvents=0;fillColor=none;top=0;left=0;bottom=0;right=0;points=[[0,0.5],[1,0.5]];portConstraint=eastwest;" parent="77" vertex="1">
          <mxGeometry y="40" width="240" height="40" as="geometry"/>
        </mxCell>
        <mxCell id="83" value="Sampling Points" style="shape=partialRectangle;html=1;whiteSpace=wrap;connectable=0;fillColor=none;top=0;left=0;bottom=0;right=0;overflow=hidden;" parent="82" vertex="1">
          <mxGeometry width="60" height="40" as="geometry"/>
        </mxCell>
        <mxCell id="84" value="[A,B,C, I,J]" style="shape=partialRectangle;html=1;whiteSpace=wrap;connectable=0;fillColor=none;top=0;left=0;bottom=0;right=0;overflow=hidden;fontSize=16;" parent="82" vertex="1">
          <mxGeometry x="60" width="180" height="40" as="geometry"/>
        </mxCell>
      </root>
    </mxGraphModel>
  </diagram>
</mxfile>
